<svg xmlns="http://www.w3.org/2000/svg" viewBox="0 0 625.28 306.72"><defs><style>.cls-1{fill:#fff;}</style></defs><title>wumpusName</title><g id="Layer_2" data-name="Layer 2"><g id="wumpus"><path class="cls-1" d="M243.9,1.18v73a40.57,40.57,0,0,1-3.47,16.64,43.1,43.1,0,0,1-9.38,13.55,45,45,0,0,1-13.8,9.15,41.81,41.81,0,0,1-16.71,3.39,41.26,41.26,0,0,1-16.63-3.39,45.4,45.4,0,0,1-13.72-9.15,43.1,43.1,0,0,1-9.38-13.55,40.57,40.57,0,0,1-3.47-16.64v-73h33.11V72.6a9.19,9.19,0,0,0,3.08,6.86,9.89,9.89,0,0,0,7,2.91,10.09,10.09,0,0,0,7.17-2.91,9.19,9.19,0,0,0,3.08-6.86V1.18Z"/><path class="cls-1" d="M358.51,1.18v114.3h-33.1V56.36l-21,27.9-20.66-27.9v59.12h-33.1V1.18h33.1l20.66,27.75,21-27.75Z"/><path class="cls-1" d="M448.69,53.52A45,45,0,0,1,430.8,83.24a46.28,46.28,0,0,1-15.69,7.41,44,44,0,0,1-18,.87v24H364V1.18h33.11a67.72,67.72,0,0,1,22.23,3.54A47.66,47.66,0,0,1,436.71,15a40.51,40.51,0,0,1,10.48,16.48Q450.58,41.23,448.69,53.52Zm-33.11-6.94A10.77,10.77,0,0,0,404.7,35.7h-7.56V57.62h7.56a10.4,10.4,0,0,0,7.73-3.23A10.79,10.79,0,0,0,415.58,46.58Z"/><path class="cls-1" d="M539,1.18v73a40.57,40.57,0,0,1-3.47,16.64,43.1,43.1,0,0,1-9.38,13.55,45.11,45.11,0,0,1-13.79,9.15,41.89,41.89,0,0,1-16.72,3.39A41.29,41.29,0,0,1,479,113.51a45.52,45.52,0,0,1-13.72-9.15,43.1,43.1,0,0,1-9.38-13.55,40.57,40.57,0,0,1-3.46-16.64v-73h33.1V72.6a9.19,9.19,0,0,0,3.08,6.86,9.91,9.91,0,0,0,7,2.91,10.11,10.11,0,0,0,7.18-2.91,9.18,9.18,0,0,0,3.07-6.86V1.18Z"/><path class="cls-1" d="M581.76.07a103.78,103.78,0,0,1,16.63.71,81.17,81.17,0,0,1,16.79,4,38.19,38.19,0,0,0-.32,4v3.86q0,2.6-.15,7.88t-.79,16a97.4,97.4,0,0,0-11.67-3.78,107,107,0,0,0-12.14-2.52,23.56,23.56,0,0,0-6.07.15,11.11,11.11,0,0,0-5.12,2.21,2.67,2.67,0,0,0-.55,3.63,9.26,9.26,0,0,0,2.91,3l18,5.84a39.22,39.22,0,0,1,10.4,4.88,38.26,38.26,0,0,1,8.2,7.33,33.71,33.71,0,0,1,5.44,9.23,29.28,29.28,0,0,1,2,10.72,37.36,37.36,0,0,1-2.6,15A35.93,35.93,0,0,1,615,103.89a38.24,38.24,0,0,1-11.74,8,50.71,50.71,0,0,1-14.9,4,31.74,31.74,0,0,1-3.31.24c-1.48,0-3.05.08-4.73.08a89,89,0,0,1-9.15-.16,58.09,58.09,0,0,1-8-1.1c-2.84-.63-5.75-1.42-8.75-2.37s-6.86-2.31-11.59-4.1l7.57-33.89q2.37.78,4.73,1.65c1.58.58,3.15,1.18,4.73,1.81l7.41,2.69c2.42.94,4.81,1.84,7.17,2.67a22.49,22.49,0,0,0,7.65,1.27,9.44,9.44,0,0,0,4.26-1.19,4.61,4.61,0,0,0,2-3.7,5.56,5.56,0,0,0-1.11-3.39,9.54,9.54,0,0,0-2.76-2.52A20.07,20.07,0,0,0,581,72.2c-1.26-.47-2.47-.86-3.63-1.18a42.18,42.18,0,0,1-13.56-5.75A49.09,49.09,0,0,1,553.14,56a44.07,44.07,0,0,1-7.09-11.43,31.22,31.22,0,0,1-2.61-12.29,34,34,0,0,1,1.42-9.78,27.27,27.27,0,0,1,4.5-8.75,31.39,31.39,0,0,1,7.72-7.09A35,35,0,0,1,568.2,2,52.22,52.22,0,0,1,581.76.07Z"/><path class="cls-1" d="M205.82,190.37,173,304.67H138.5l-9.93-36.89-10.09,36.89H84L51.16,190.37H89l14.66,55,11.35-55h27l11.51,55,14.5-55Z"/><path class="cls-1" d="M257.38,188.16a57.74,57.74,0,0,1,23.09,4.65A59.39,59.39,0,0,1,312,224.34a59.7,59.7,0,0,1,0,46.2,59.39,59.39,0,0,1-31.54,31.53,59.68,59.68,0,0,1-46.19,0,59.33,59.33,0,0,1-31.53-31.53,59.7,59.7,0,0,1,0-46.2,59.33,59.33,0,0,1,31.53-31.53A57.79,57.79,0,0,1,257.38,188.16Zm25.38,59.12a24.47,24.47,0,0,0-2-9.77,24.44,24.44,0,0,0-13.16-13.17,25.24,25.24,0,0,0-19.55,0,26.26,26.26,0,0,0-8,5.28,25,25,0,0,0-5.36,27.44,25,25,0,0,0,13.33,13.32A24.85,24.85,0,0,0,275.51,265a26.21,26.21,0,0,0,5.28-8A24.52,24.52,0,0,0,282.76,247.28Z"/><path class="cls-1" d="M417.08,304.67H381.45q-7.09-10.41-11.74-16.63t-7.57-9.38a17.06,17.06,0,0,0-4.34-3.79c-.94-.42-1.6-.36-2,.16a4.14,4.14,0,0,0-.55,2.36v27.28H322.17V190.37h43.36a33.37,33.37,0,0,1,14.9,3.62,45.8,45.8,0,0,1,12.69,9.15,40.66,40.66,0,0,1,9.38,14.34,43.39,43.39,0,0,1,2.92,16.4,44.8,44.8,0,0,1-3.55,16.48,46.2,46.2,0,0,1-9.7,14.58Zm-43.67-72.21a10.77,10.77,0,0,0-10.88-10.88H355V243.5h7.56a10.4,10.4,0,0,0,7.73-3.23A10.79,10.79,0,0,0,373.41,232.46Z"/><path class="cls-1" d="M480.93,271.56v33.11H423.86V190.37H457v81.19Z"/><path class="cls-1" d="M519.08,190.37a55.43,55.43,0,0,1,22.24,4.49,57.38,57.38,0,0,1,18.13,12.3,59,59,0,0,1,12.21,18.13,54.83,54.83,0,0,1,4.5,22.15,55.42,55.42,0,0,1-4.5,22.23,58.68,58.68,0,0,1-12.21,18.21,57.38,57.38,0,0,1-18.13,12.3,55.6,55.6,0,0,1-22.24,4.49H486V190.37Zm0,80.88a25.19,25.19,0,0,0,9.54-1.82,24,24,0,0,0,7.81-39.25,24.76,24.76,0,0,0-7.81-5.13,24.31,24.31,0,0,0-9.54-1.89Z"/><path class="cls-1" d="M88.68,37.88a55.5,55.5,0,0,1,10.49,3.25L90.81,1.18h-27l-8.26,40A57.75,57.75,0,0,1,88.68,37.88Z"/><path class="cls-1" d="M27.58,62.82A67.85,67.85,0,0,1,49.29,44.17l-11.45-43H0l32.79,114.3H67.32L75.66,85C47.66,84.52,29.91,65.41,27.58,62.82Z"/><path class="cls-1" d="M116.82,1.18l-11.36,43.1a64,64,0,0,1,20,18.54c-3.12,3.5-18.83,20.42-44.82,22.06l-1.55.06,8.22,30.54h34.53L154.66,1.18Z"/><circle class="cls-1" cx="76.54" cy="60.51" r="11.47"/></g></g></svg>